<mxfile host="Electron" agent="Mozilla/5.0 (Windows NT 10.0; Win64; x64) AppleWebKit/537.36 (KHTML, like Gecko) draw.io/26.2.2 Chrome/134.0.6998.178 Electron/35.1.2 Safari/537.36" version="26.2.2">
  <diagram name="Page-1" id="CfW-_Tz82PXMGNKahrf7">
    <mxGraphModel dx="788" dy="1624" grid="1" gridSize="10" guides="1" tooltips="1" connect="1" arrows="1" fold="1" page="1" pageScale="1" pageWidth="850" pageHeight="1100" math="0" shadow="0">
      <root>
        <mxCell id="0" />
        <mxCell id="1" parent="0" />
        <mxCell id="e3tBcOT2XjuRPqGABPEm-5" style="edgeStyle=orthogonalEdgeStyle;rounded=0;orthogonalLoop=1;jettySize=auto;html=1;exitX=0.5;exitY=1;exitDx=0;exitDy=0;entryX=1;entryY=0.75;entryDx=0;entryDy=0;fillColor=#fff2cc;strokeColor=#d6b656;" parent="1" source="e3tBcOT2XjuRPqGABPEm-2" target="e3tBcOT2XjuRPqGABPEm-3" edge="1">
          <mxGeometry relative="1" as="geometry" />
        </mxCell>
        <mxCell id="e3tBcOT2XjuRPqGABPEm-9" style="edgeStyle=orthogonalEdgeStyle;rounded=0;orthogonalLoop=1;jettySize=auto;html=1;exitX=1;exitY=0.5;exitDx=0;exitDy=0;fillColor=#fff2cc;strokeColor=#d6b656;" parent="1" source="e3tBcOT2XjuRPqGABPEm-2" target="e3tBcOT2XjuRPqGABPEm-10" edge="1">
          <mxGeometry relative="1" as="geometry">
            <mxPoint x="350" y="110" as="targetPoint" />
          </mxGeometry>
        </mxCell>
        <mxCell id="e3tBcOT2XjuRPqGABPEm-69" style="edgeStyle=orthogonalEdgeStyle;rounded=0;orthogonalLoop=1;jettySize=auto;html=1;exitX=0.5;exitY=0;exitDx=0;exitDy=0;entryX=0.5;entryY=1;entryDx=0;entryDy=0;" parent="1" source="e3tBcOT2XjuRPqGABPEm-2" target="e3tBcOT2XjuRPqGABPEm-65" edge="1">
          <mxGeometry relative="1" as="geometry" />
        </mxCell>
        <mxCell id="e3tBcOT2XjuRPqGABPEm-70" style="edgeStyle=orthogonalEdgeStyle;rounded=0;orthogonalLoop=1;jettySize=auto;html=1;exitX=1;exitY=0;exitDx=0;exitDy=0;entryX=1;entryY=0;entryDx=0;entryDy=0;fillColor=#ffe6cc;strokeColor=#d79b00;" parent="1" source="e3tBcOT2XjuRPqGABPEm-2" target="e3tBcOT2XjuRPqGABPEm-65" edge="1">
          <mxGeometry relative="1" as="geometry">
            <Array as="points">
              <mxPoint x="248" y="80" />
              <mxPoint x="300" y="80" />
              <mxPoint x="300" y="-1" />
              <mxPoint x="260" y="-1" />
            </Array>
          </mxGeometry>
        </mxCell>
        <mxCell id="e3tBcOT2XjuRPqGABPEm-2" value="&amp;nbsp;P1.1:Verify Login" style="ellipse;whiteSpace=wrap;html=1;aspect=fixed;fillColor=#dae8fc;strokeColor=#6c8ebf;" parent="1" vertex="1">
          <mxGeometry x="180" y="70" width="80" height="80" as="geometry" />
        </mxCell>
        <mxCell id="e3tBcOT2XjuRPqGABPEm-8" style="edgeStyle=orthogonalEdgeStyle;rounded=0;orthogonalLoop=1;jettySize=auto;html=1;exitX=0.5;exitY=0;exitDx=0;exitDy=0;entryX=0;entryY=0.5;entryDx=0;entryDy=0;fillColor=#fff2cc;strokeColor=#d6b656;" parent="1" source="e3tBcOT2XjuRPqGABPEm-3" target="e3tBcOT2XjuRPqGABPEm-2" edge="1">
          <mxGeometry relative="1" as="geometry" />
        </mxCell>
        <mxCell id="e3tBcOT2XjuRPqGABPEm-3" value="User" style="rounded=0;whiteSpace=wrap;html=1;fillColor=#dae8fc;strokeColor=#6c8ebf;" parent="1" vertex="1">
          <mxGeometry x="80" y="180" width="80" height="40" as="geometry" />
        </mxCell>
        <mxCell id="e3tBcOT2XjuRPqGABPEm-11" style="edgeStyle=orthogonalEdgeStyle;rounded=0;orthogonalLoop=1;jettySize=auto;html=1;exitX=1;exitY=0.5;exitDx=0;exitDy=0;fillColor=#fff2cc;strokeColor=#d6b656;" parent="1" source="e3tBcOT2XjuRPqGABPEm-10" target="e3tBcOT2XjuRPqGABPEm-12" edge="1">
          <mxGeometry relative="1" as="geometry">
            <mxPoint x="480" y="110" as="targetPoint" />
          </mxGeometry>
        </mxCell>
        <mxCell id="e3tBcOT2XjuRPqGABPEm-10" value="P1.2:Job Seeker Registration" style="ellipse;whiteSpace=wrap;html=1;aspect=fixed;fillColor=#dae8fc;strokeColor=#6c8ebf;" parent="1" vertex="1">
          <mxGeometry x="345" y="70" width="80" height="80" as="geometry" />
        </mxCell>
        <mxCell id="e3tBcOT2XjuRPqGABPEm-16" style="edgeStyle=orthogonalEdgeStyle;rounded=0;orthogonalLoop=1;jettySize=auto;html=1;exitX=1;exitY=0.5;exitDx=0;exitDy=0;entryX=1;entryY=0.5;entryDx=0;entryDy=0;fillColor=#fff2cc;strokeColor=#d6b656;" parent="1" source="e3tBcOT2XjuRPqGABPEm-12" target="e3tBcOT2XjuRPqGABPEm-13" edge="1">
          <mxGeometry relative="1" as="geometry" />
        </mxCell>
        <mxCell id="e3tBcOT2XjuRPqGABPEm-12" value="Job Seeker" style="rounded=0;whiteSpace=wrap;html=1;fillColor=#dae8fc;strokeColor=#6c8ebf;" parent="1" vertex="1">
          <mxGeometry x="480" y="90" width="80" height="40" as="geometry" />
        </mxCell>
        <mxCell id="e3tBcOT2XjuRPqGABPEm-15" style="edgeStyle=orthogonalEdgeStyle;rounded=0;orthogonalLoop=1;jettySize=auto;html=1;exitX=0.5;exitY=0;exitDx=0;exitDy=0;entryX=0.5;entryY=1;entryDx=0;entryDy=0;fillColor=#fff2cc;strokeColor=#d6b656;" parent="1" source="e3tBcOT2XjuRPqGABPEm-13" target="e3tBcOT2XjuRPqGABPEm-12" edge="1">
          <mxGeometry relative="1" as="geometry" />
        </mxCell>
        <mxCell id="e3tBcOT2XjuRPqGABPEm-13" value="P1.3:Upload Resume" style="ellipse;whiteSpace=wrap;html=1;aspect=fixed;fillColor=#dae8fc;strokeColor=#6c8ebf;" parent="1" vertex="1">
          <mxGeometry x="470" y="180" width="80" height="80" as="geometry" />
        </mxCell>
        <mxCell id="e3tBcOT2XjuRPqGABPEm-20" style="edgeStyle=orthogonalEdgeStyle;rounded=0;orthogonalLoop=1;jettySize=auto;html=1;exitX=0.5;exitY=1;exitDx=0;exitDy=0;entryX=1;entryY=0.25;entryDx=0;entryDy=0;fillColor=#fff2cc;strokeColor=#d6b656;" parent="1" source="e3tBcOT2XjuRPqGABPEm-18" target="e3tBcOT2XjuRPqGABPEm-12" edge="1">
          <mxGeometry relative="1" as="geometry" />
        </mxCell>
        <mxCell id="e3tBcOT2XjuRPqGABPEm-22" style="edgeStyle=orthogonalEdgeStyle;rounded=0;orthogonalLoop=1;jettySize=auto;html=1;exitX=1;exitY=0.5;exitDx=0;exitDy=0;fillColor=#fff2cc;strokeColor=#d6b656;" parent="1" source="e3tBcOT2XjuRPqGABPEm-18" target="e3tBcOT2XjuRPqGABPEm-21" edge="1">
          <mxGeometry relative="1" as="geometry" />
        </mxCell>
        <mxCell id="e3tBcOT2XjuRPqGABPEm-18" value="P2.1:Search Jobs" style="ellipse;whiteSpace=wrap;html=1;aspect=fixed;fillColor=#dae8fc;strokeColor=#6c8ebf;" parent="1" vertex="1">
          <mxGeometry x="650" y="50" width="80" height="80" as="geometry" />
        </mxCell>
        <mxCell id="e3tBcOT2XjuRPqGABPEm-19" style="edgeStyle=orthogonalEdgeStyle;rounded=0;orthogonalLoop=1;jettySize=auto;html=1;exitX=0.5;exitY=0;exitDx=0;exitDy=0;entryX=0.017;entryY=0.325;entryDx=0;entryDy=0;entryPerimeter=0;fillColor=#fff2cc;strokeColor=#d6b656;" parent="1" source="e3tBcOT2XjuRPqGABPEm-12" target="e3tBcOT2XjuRPqGABPEm-18" edge="1">
          <mxGeometry relative="1" as="geometry" />
        </mxCell>
        <mxCell id="e3tBcOT2XjuRPqGABPEm-23" style="edgeStyle=orthogonalEdgeStyle;rounded=0;orthogonalLoop=1;jettySize=auto;html=1;exitX=1;exitY=0.5;exitDx=0;exitDy=0;entryX=0.5;entryY=0;entryDx=0;entryDy=0;fillColor=#fff2cc;strokeColor=#d6b656;" parent="1" source="e3tBcOT2XjuRPqGABPEm-21" target="e3tBcOT2XjuRPqGABPEm-18" edge="1">
          <mxGeometry relative="1" as="geometry" />
        </mxCell>
        <mxCell id="e3tBcOT2XjuRPqGABPEm-21" value="P2.2:Match Jobs" style="ellipse;whiteSpace=wrap;html=1;aspect=fixed;fillColor=#dae8fc;strokeColor=#6c8ebf;" parent="1" vertex="1">
          <mxGeometry x="690" y="200" width="80" height="80" as="geometry" />
        </mxCell>
        <mxCell id="e3tBcOT2XjuRPqGABPEm-29" style="edgeStyle=orthogonalEdgeStyle;rounded=0;orthogonalLoop=1;jettySize=auto;html=1;exitX=0.5;exitY=0;exitDx=0;exitDy=0;entryX=0.5;entryY=1;entryDx=0;entryDy=0;fillColor=#fff2cc;strokeColor=#d6b656;" parent="1" source="e3tBcOT2XjuRPqGABPEm-25" target="e3tBcOT2XjuRPqGABPEm-27" edge="1">
          <mxGeometry relative="1" as="geometry" />
        </mxCell>
        <mxCell id="e3tBcOT2XjuRPqGABPEm-36" style="edgeStyle=orthogonalEdgeStyle;rounded=0;orthogonalLoop=1;jettySize=auto;html=1;exitX=0;exitY=0.5;exitDx=0;exitDy=0;entryX=0;entryY=0;entryDx=0;entryDy=0;fillColor=#ffe6cc;strokeColor=#d79b00;" parent="1" source="e3tBcOT2XjuRPqGABPEm-25" target="e3tBcOT2XjuRPqGABPEm-2" edge="1">
          <mxGeometry relative="1" as="geometry">
            <Array as="points">
              <mxPoint x="60" y="420" />
              <mxPoint x="60" y="82" />
            </Array>
          </mxGeometry>
        </mxCell>
        <mxCell id="e3tBcOT2XjuRPqGABPEm-25" value="P2.3:Employer Registration" style="ellipse;whiteSpace=wrap;html=1;aspect=fixed;fillColor=#dae8fc;strokeColor=#6c8ebf;" parent="1" vertex="1">
          <mxGeometry x="150" y="380" width="80" height="80" as="geometry" />
        </mxCell>
        <mxCell id="e3tBcOT2XjuRPqGABPEm-34" style="edgeStyle=orthogonalEdgeStyle;rounded=0;orthogonalLoop=1;jettySize=auto;html=1;exitX=0;exitY=0.5;exitDx=0;exitDy=0;entryX=0;entryY=0;entryDx=0;entryDy=0;fillColor=#fff2cc;strokeColor=#d6b656;" parent="1" source="e3tBcOT2XjuRPqGABPEm-27" target="e3tBcOT2XjuRPqGABPEm-25" edge="1">
          <mxGeometry relative="1" as="geometry">
            <Array as="points">
              <mxPoint x="90" y="270" />
              <mxPoint x="90" y="335" />
              <mxPoint x="162" y="335" />
            </Array>
          </mxGeometry>
        </mxCell>
        <mxCell id="e3tBcOT2XjuRPqGABPEm-42" style="edgeStyle=orthogonalEdgeStyle;rounded=0;orthogonalLoop=1;jettySize=auto;html=1;exitX=1;exitY=0.5;exitDx=0;exitDy=0;entryX=0.5;entryY=0;entryDx=0;entryDy=0;fillColor=#fff2cc;strokeColor=#d6b656;" parent="1" source="e3tBcOT2XjuRPqGABPEm-27" target="e3tBcOT2XjuRPqGABPEm-40" edge="1">
          <mxGeometry relative="1" as="geometry" />
        </mxCell>
        <mxCell id="e3tBcOT2XjuRPqGABPEm-27" value="Employer" style="rounded=0;whiteSpace=wrap;html=1;fillColor=#dae8fc;strokeColor=#6c8ebf;" parent="1" vertex="1">
          <mxGeometry x="140" y="250" width="90" height="40" as="geometry" />
        </mxCell>
        <mxCell id="e3tBcOT2XjuRPqGABPEm-46" style="edgeStyle=orthogonalEdgeStyle;rounded=0;orthogonalLoop=1;jettySize=auto;html=1;exitX=1;exitY=0;exitDx=0;exitDy=0;entryX=0.5;entryY=0;entryDx=0;entryDy=0;fillColor=#fff2cc;strokeColor=#d6b656;" parent="1" source="e3tBcOT2XjuRPqGABPEm-37" target="e3tBcOT2XjuRPqGABPEm-45" edge="1">
          <mxGeometry relative="1" as="geometry" />
        </mxCell>
        <mxCell id="e3tBcOT2XjuRPqGABPEm-55" style="edgeStyle=orthogonalEdgeStyle;rounded=0;orthogonalLoop=1;jettySize=auto;html=1;exitX=0;exitY=0;exitDx=0;exitDy=0;entryX=0.5;entryY=1;entryDx=0;entryDy=0;" parent="1" source="e3tBcOT2XjuRPqGABPEm-37" target="e3tBcOT2XjuRPqGABPEm-51" edge="1">
          <mxGeometry relative="1" as="geometry" />
        </mxCell>
        <mxCell id="e3tBcOT2XjuRPqGABPEm-37" value="P2.4:Post Jobs" style="ellipse;whiteSpace=wrap;html=1;aspect=fixed;fillColor=#dae8fc;strokeColor=#6c8ebf;" parent="1" vertex="1">
          <mxGeometry x="320" y="185" width="70" height="70" as="geometry" />
        </mxCell>
        <mxCell id="e3tBcOT2XjuRPqGABPEm-38" style="edgeStyle=orthogonalEdgeStyle;rounded=0;orthogonalLoop=1;jettySize=auto;html=1;exitX=0;exitY=0.5;exitDx=0;exitDy=0;entryX=0.652;entryY=0;entryDx=0;entryDy=0;entryPerimeter=0;fillColor=#fff2cc;strokeColor=#d6b656;" parent="1" source="e3tBcOT2XjuRPqGABPEm-37" target="e3tBcOT2XjuRPqGABPEm-27" edge="1">
          <mxGeometry relative="1" as="geometry" />
        </mxCell>
        <mxCell id="e3tBcOT2XjuRPqGABPEm-43" style="edgeStyle=orthogonalEdgeStyle;rounded=0;orthogonalLoop=1;jettySize=auto;html=1;exitX=0;exitY=0.5;exitDx=0;exitDy=0;entryX=0.75;entryY=1;entryDx=0;entryDy=0;fillColor=#fff2cc;strokeColor=#d6b656;" parent="1" source="e3tBcOT2XjuRPqGABPEm-40" target="e3tBcOT2XjuRPqGABPEm-27" edge="1">
          <mxGeometry relative="1" as="geometry" />
        </mxCell>
        <mxCell id="e3tBcOT2XjuRPqGABPEm-60" style="edgeStyle=orthogonalEdgeStyle;rounded=0;orthogonalLoop=1;jettySize=auto;html=1;exitX=1;exitY=0;exitDx=0;exitDy=0;entryX=0.25;entryY=0;entryDx=0;entryDy=0;fillColor=#fff2cc;strokeColor=#d6b656;" parent="1" source="e3tBcOT2XjuRPqGABPEm-40" edge="1">
          <mxGeometry relative="1" as="geometry">
            <mxPoint x="391.875" y="370" as="targetPoint" />
          </mxGeometry>
        </mxCell>
        <mxCell id="e3tBcOT2XjuRPqGABPEm-40" value="P2.5:Match Candidates" style="ellipse;whiteSpace=wrap;html=1;aspect=fixed;fillColor=#dae8fc;strokeColor=#6c8ebf;" parent="1" vertex="1">
          <mxGeometry x="270" y="340" width="70" height="70" as="geometry" />
        </mxCell>
        <mxCell id="e3tBcOT2XjuRPqGABPEm-41" style="edgeStyle=orthogonalEdgeStyle;rounded=0;orthogonalLoop=1;jettySize=auto;html=1;exitX=1;exitY=0;exitDx=0;exitDy=0;entryX=0.057;entryY=0.705;entryDx=0;entryDy=0;entryPerimeter=0;fillColor=#fff2cc;strokeColor=#d6b656;" parent="1" source="e3tBcOT2XjuRPqGABPEm-27" target="e3tBcOT2XjuRPqGABPEm-37" edge="1">
          <mxGeometry relative="1" as="geometry" />
        </mxCell>
        <mxCell id="e3tBcOT2XjuRPqGABPEm-47" style="edgeStyle=orthogonalEdgeStyle;rounded=0;orthogonalLoop=1;jettySize=auto;html=1;exitX=0;exitY=0.5;exitDx=0;exitDy=0;entryX=0.5;entryY=1;entryDx=0;entryDy=0;" parent="1" source="e3tBcOT2XjuRPqGABPEm-45" target="e3tBcOT2XjuRPqGABPEm-37" edge="1">
          <mxGeometry relative="1" as="geometry" />
        </mxCell>
        <mxCell id="e3tBcOT2XjuRPqGABPEm-73" value="" style="edgeStyle=orthogonalEdgeStyle;rounded=0;orthogonalLoop=1;jettySize=auto;html=1;fillColor=#fff2cc;strokeColor=#d6b656;" parent="1" source="e3tBcOT2XjuRPqGABPEm-45" target="e3tBcOT2XjuRPqGABPEm-37" edge="1">
          <mxGeometry relative="1" as="geometry" />
        </mxCell>
        <mxCell id="e3tBcOT2XjuRPqGABPEm-45" value="Job Listings" style="rounded=0;whiteSpace=wrap;html=1;fillColor=#dae8fc;strokeColor=#6c8ebf;" parent="1" vertex="1">
          <mxGeometry x="400" y="270" width="70" height="40" as="geometry" />
        </mxCell>
        <mxCell id="e3tBcOT2XjuRPqGABPEm-72" style="edgeStyle=orthogonalEdgeStyle;rounded=0;orthogonalLoop=1;jettySize=auto;html=1;exitX=0.75;exitY=0;exitDx=0;exitDy=0;entryX=1;entryY=0;entryDx=0;entryDy=0;fillColor=#fff2cc;strokeColor=#d6b656;" parent="1" source="e3tBcOT2XjuRPqGABPEm-51" target="e3tBcOT2XjuRPqGABPEm-37" edge="1">
          <mxGeometry relative="1" as="geometry">
            <Array as="points">
              <mxPoint x="380" y="150" />
            </Array>
          </mxGeometry>
        </mxCell>
        <mxCell id="e3tBcOT2XjuRPqGABPEm-51" value="&lt;font style=&quot;color: rgb(51, 255, 51);&quot;&gt;Job Listing Data&lt;/font&gt;" style="text;html=1;align=center;verticalAlign=middle;whiteSpace=wrap;rounded=0;" parent="1" vertex="1">
          <mxGeometry x="265" y="150" width="85" height="30" as="geometry" />
        </mxCell>
        <mxCell id="e3tBcOT2XjuRPqGABPEm-52" value="" style="endArrow=none;html=1;rounded=0;strokeColor=#d6b656;fillColor=#fff2cc;" parent="1" edge="1">
          <mxGeometry width="50" height="50" relative="1" as="geometry">
            <mxPoint x="255" y="149" as="sourcePoint" />
            <mxPoint x="345" y="149" as="targetPoint" />
          </mxGeometry>
        </mxCell>
        <mxCell id="e3tBcOT2XjuRPqGABPEm-53" value="" style="endArrow=none;html=1;rounded=0;strokeColor=#d6b656;fillColor=#fff2cc;" parent="1" edge="1">
          <mxGeometry width="50" height="50" relative="1" as="geometry">
            <mxPoint x="255" y="179" as="sourcePoint" />
            <mxPoint x="345" y="179" as="targetPoint" />
          </mxGeometry>
        </mxCell>
        <mxCell id="e3tBcOT2XjuRPqGABPEm-61" style="edgeStyle=orthogonalEdgeStyle;rounded=0;orthogonalLoop=1;jettySize=auto;html=1;exitX=0.5;exitY=1;exitDx=0;exitDy=0;entryX=0.5;entryY=1;entryDx=0;entryDy=0;fillColor=#fff2cc;strokeColor=#d6b656;" parent="1" target="e3tBcOT2XjuRPqGABPEm-40" edge="1">
          <mxGeometry relative="1" as="geometry">
            <mxPoint x="421.25" y="400" as="sourcePoint" />
            <Array as="points">
              <mxPoint x="435" y="440" />
              <mxPoint x="305" y="440" />
            </Array>
          </mxGeometry>
        </mxCell>
        <mxCell id="e3tBcOT2XjuRPqGABPEm-63" value="" style="endArrow=none;html=1;rounded=0;fillColor=#ffe6cc;strokeColor=#d79b00;" parent="1" edge="1">
          <mxGeometry width="50" height="50" relative="1" as="geometry">
            <mxPoint x="185" y="18" as="sourcePoint" />
            <mxPoint x="270" y="19" as="targetPoint" />
          </mxGeometry>
        </mxCell>
        <mxCell id="e3tBcOT2XjuRPqGABPEm-64" value="" style="endArrow=none;html=1;rounded=0;fillColor=#fff2cc;strokeColor=#d6b656;" parent="1" edge="1">
          <mxGeometry width="50" height="50" relative="1" as="geometry">
            <mxPoint x="190" y="49" as="sourcePoint" />
            <mxPoint x="270" y="49" as="targetPoint" />
          </mxGeometry>
        </mxCell>
        <mxCell id="e3tBcOT2XjuRPqGABPEm-65" value="&lt;font style=&quot;color: rgb(51, 255, 51);&quot;&gt;Verifier User Data&lt;/font&gt;" style="text;html=1;align=center;verticalAlign=middle;whiteSpace=wrap;rounded=0;" parent="1" vertex="1">
          <mxGeometry x="190" y="19" width="70" height="30" as="geometry" />
        </mxCell>
        <mxCell id="e3tBcOT2XjuRPqGABPEm-74" value="" style="endArrow=none;html=1;rounded=0;fillColor=#fff2cc;strokeColor=#d6b656;" parent="1" edge="1">
          <mxGeometry width="50" height="50" relative="1" as="geometry">
            <mxPoint x="360" y="370" as="sourcePoint" />
            <mxPoint x="490" y="370" as="targetPoint" />
          </mxGeometry>
        </mxCell>
        <mxCell id="e3tBcOT2XjuRPqGABPEm-75" value="" style="endArrow=none;html=1;rounded=0;fillColor=#fff2cc;strokeColor=#d6b656;" parent="1" edge="1">
          <mxGeometry width="50" height="50" relative="1" as="geometry">
            <mxPoint x="360" y="400" as="sourcePoint" />
            <mxPoint x="490" y="400" as="targetPoint" />
          </mxGeometry>
        </mxCell>
        <mxCell id="e3tBcOT2XjuRPqGABPEm-76" value="&lt;font style=&quot;color: rgb(51, 255, 51);&quot;&gt;Candidate Requirements&lt;/font&gt;" style="text;html=1;align=center;verticalAlign=middle;whiteSpace=wrap;rounded=0;" parent="1" vertex="1">
          <mxGeometry x="380" y="370" width="80" height="30" as="geometry" />
        </mxCell>
        <mxCell id="VbFHiT7bolJ2c2VQwf7J-4" style="edgeStyle=orthogonalEdgeStyle;rounded=0;orthogonalLoop=1;jettySize=auto;html=1;exitX=0.5;exitY=1;exitDx=0;exitDy=0;entryX=0.5;entryY=1;entryDx=0;entryDy=0;fillColor=#fff2cc;strokeColor=#d6b656;" edge="1" parent="1" source="VbFHiT7bolJ2c2VQwf7J-1" target="e3tBcOT2XjuRPqGABPEm-25">
          <mxGeometry relative="1" as="geometry" />
        </mxCell>
        <mxCell id="VbFHiT7bolJ2c2VQwf7J-16" style="edgeStyle=orthogonalEdgeStyle;rounded=0;orthogonalLoop=1;jettySize=auto;html=1;exitX=1;exitY=1;exitDx=0;exitDy=0;fillColor=#fff2cc;strokeColor=#d6b656;" edge="1" parent="1" source="VbFHiT7bolJ2c2VQwf7J-1" target="VbFHiT7bolJ2c2VQwf7J-10">
          <mxGeometry relative="1" as="geometry" />
        </mxCell>
        <mxCell id="VbFHiT7bolJ2c2VQwf7J-1" value="P1.4:Manage Businesses" style="ellipse;whiteSpace=wrap;html=1;aspect=fixed;fillColor=#dae8fc;strokeColor=#6c8ebf;" vertex="1" parent="1">
          <mxGeometry x="550" y="420" width="80" height="80" as="geometry" />
        </mxCell>
        <mxCell id="VbFHiT7bolJ2c2VQwf7J-5" style="edgeStyle=orthogonalEdgeStyle;rounded=0;orthogonalLoop=1;jettySize=auto;html=1;exitX=1;exitY=1;exitDx=0;exitDy=0;entryX=0.008;entryY=0.608;entryDx=0;entryDy=0;entryPerimeter=0;fillColor=#fff2cc;strokeColor=#d6b656;" edge="1" parent="1" source="e3tBcOT2XjuRPqGABPEm-25" target="VbFHiT7bolJ2c2VQwf7J-1">
          <mxGeometry relative="1" as="geometry" />
        </mxCell>
        <mxCell id="VbFHiT7bolJ2c2VQwf7J-8" style="edgeStyle=orthogonalEdgeStyle;rounded=0;orthogonalLoop=1;jettySize=auto;html=1;exitX=0.75;exitY=1;exitDx=0;exitDy=0;entryX=1;entryY=0;entryDx=0;entryDy=0;fillColor=#fff2cc;strokeColor=#d6b656;" edge="1" parent="1" source="VbFHiT7bolJ2c2VQwf7J-6" target="VbFHiT7bolJ2c2VQwf7J-1">
          <mxGeometry relative="1" as="geometry" />
        </mxCell>
        <mxCell id="VbFHiT7bolJ2c2VQwf7J-6" value="Businesses" style="rounded=0;whiteSpace=wrap;html=1;fillColor=#dae8fc;strokeColor=#6c8ebf;" vertex="1" parent="1">
          <mxGeometry x="560" y="290" width="90" height="40" as="geometry" />
        </mxCell>
        <mxCell id="VbFHiT7bolJ2c2VQwf7J-7" style="edgeStyle=orthogonalEdgeStyle;rounded=0;orthogonalLoop=1;jettySize=auto;html=1;exitX=0.5;exitY=0;exitDx=0;exitDy=0;entryX=0.341;entryY=1.05;entryDx=0;entryDy=0;entryPerimeter=0;fillColor=#fff2cc;strokeColor=#d6b656;" edge="1" parent="1" source="VbFHiT7bolJ2c2VQwf7J-1" target="VbFHiT7bolJ2c2VQwf7J-6">
          <mxGeometry relative="1" as="geometry" />
        </mxCell>
        <mxCell id="VbFHiT7bolJ2c2VQwf7J-9" value="" style="endArrow=none;html=1;rounded=0;fillColor=#fff2cc;strokeColor=#d6b656;" edge="1" parent="1">
          <mxGeometry width="50" height="50" relative="1" as="geometry">
            <mxPoint x="680" y="460" as="sourcePoint" />
            <mxPoint x="780" y="460" as="targetPoint" />
          </mxGeometry>
        </mxCell>
        <mxCell id="VbFHiT7bolJ2c2VQwf7J-10" value="&lt;font style=&quot;color: rgb(51, 255, 51);&quot;&gt;Business Data&lt;/font&gt;" style="text;html=1;align=center;verticalAlign=middle;whiteSpace=wrap;rounded=0;" vertex="1" parent="1">
          <mxGeometry x="690" y="460" width="80" height="30" as="geometry" />
        </mxCell>
        <mxCell id="VbFHiT7bolJ2c2VQwf7J-13" value="" style="endArrow=none;html=1;rounded=0;fillColor=#fff2cc;strokeColor=#d6b656;" edge="1" parent="1">
          <mxGeometry width="50" height="50" relative="1" as="geometry">
            <mxPoint x="680" y="490" as="sourcePoint" />
            <mxPoint x="780" y="490" as="targetPoint" />
          </mxGeometry>
        </mxCell>
        <mxCell id="VbFHiT7bolJ2c2VQwf7J-14" style="edgeStyle=orthogonalEdgeStyle;rounded=0;orthogonalLoop=1;jettySize=auto;html=1;exitX=0.5;exitY=0;exitDx=0;exitDy=0;entryX=1.033;entryY=0.342;entryDx=0;entryDy=0;entryPerimeter=0;fillColor=#fff2cc;strokeColor=#d6b656;" edge="1" parent="1" source="VbFHiT7bolJ2c2VQwf7J-10" target="VbFHiT7bolJ2c2VQwf7J-1">
          <mxGeometry relative="1" as="geometry" />
        </mxCell>
      </root>
    </mxGraphModel>
  </diagram>
</mxfile>
